<svg id="visual" viewBox="0 0 960 540" width="960" height="540" xmlns="http://www.w3.org/2000/svg" xmlns:xlink="http://www.w3.org/1999/xlink" version="1.1"><rect x="0" y="0" width="960" height="540" fill="#001220"></rect><path d="M0 327L22.8 336.2C45.7 345.3 91.3 363.7 137 367.3C182.7 371 228.3 360 274 350.7C319.7 341.3 365.3 333.7 411.2 335.3C457 337 503 348 548.8 348.5C594.7 349 640.3 339 686 339.7C731.7 340.3 777.3 351.7 823 357.8C868.7 364 914.3 365 937.2 365.5L960 366L960 541L937.2 541C914.3 541 868.7 541 823 541C777.3 541 731.7 541 686 541C640.3 541 594.7 541 548.8 541C503 541 457 541 411.2 541C365.3 541 319.7 541 274 541C228.3 541 182.7 541 137 541C91.3 541 45.7 541 22.8 541L0 541Z" fill="#c62368"></path><path d="M0 389L22.8 392.8C45.7 396.7 91.3 404.3 137 408.7C182.7 413 228.3 414 274 415.7C319.7 417.3 365.3 419.7 411.2 410.7C457 401.7 503 381.3 548.8 372.3C594.7 363.3 640.3 365.7 686 365.8C731.7 366 777.3 364 823 371.8C868.7 379.7 914.3 397.3 937.2 406.2L960 415L960 541L937.2 541C914.3 541 868.7 541 823 541C777.3 541 731.7 541 686 541C640.3 541 594.7 541 548.8 541C503 541 457 541 411.2 541C365.3 541 319.7 541 274 541C228.3 541 182.7 541 137 541C91.3 541 45.7 541 22.8 541L0 541Z" fill="#d53867"></path><path d="M0 422L22.8 420.5C45.7 419 91.3 416 137 416.8C182.7 417.7 228.3 422.3 274 424C319.7 425.7 365.3 424.3 411.2 421.7C457 419 503 415 548.8 411.8C594.7 408.7 640.3 406.3 686 412.7C731.7 419 777.3 434 823 437.8C868.7 441.7 914.3 434.3 937.2 430.7L960 427L960 541L937.2 541C914.3 541 868.7 541 823 541C777.3 541 731.7 541 686 541C640.3 541 594.7 541 548.8 541C503 541 457 541 411.2 541C365.3 541 319.7 541 274 541C228.3 541 182.7 541 137 541C91.3 541 45.7 541 22.8 541L0 541Z" fill="#e34c67"></path><path d="M0 441L22.8 442.2C45.7 443.3 91.3 445.7 137 452C182.7 458.3 228.3 468.7 274 467C319.7 465.3 365.3 451.7 411.2 451.8C457 452 503 466 548.8 467.5C594.7 469 640.3 458 686 454.3C731.7 450.7 777.3 454.3 823 453.8C868.7 453.3 914.3 448.7 937.2 446.3L960 444L960 541L937.2 541C914.3 541 868.7 541 823 541C777.3 541 731.7 541 686 541C640.3 541 594.7 541 548.8 541C503 541 457 541 411.2 541C365.3 541 319.7 541 274 541C228.3 541 182.7 541 137 541C91.3 541 45.7 541 22.8 541L0 541Z" fill="#ef5f67"></path><path d="M0 483L22.8 481.5C45.7 480 91.3 477 137 482.2C182.7 487.3 228.3 500.7 274 502.2C319.7 503.7 365.3 493.3 411.2 487.2C457 481 503 479 548.8 479.3C594.7 479.7 640.3 482.3 686 487.7C731.7 493 777.3 501 823 503.7C868.7 506.3 914.3 503.7 937.2 502.3L960 501L960 541L937.2 541C914.3 541 868.7 541 823 541C777.3 541 731.7 541 686 541C640.3 541 594.7 541 548.8 541C503 541 457 541 411.2 541C365.3 541 319.7 541 274 541C228.3 541 182.7 541 137 541C91.3 541 45.7 541 22.8 541L0 541Z" fill="#fa7268"></path></svg>